<svg width="23" height="25" viewBox="0 0 23 25" fill="none" xmlns="http://www.w3.org/2000/svg">
<path d="M1.5 10.3801C1.5 9.42659 1.95332 8.52983 2.72115 7.96442L11.5 1.5L20.2788 7.96443C21.0467 8.52983 21.5 9.42659 21.5 10.3801V21C21.5 22.3807 20.3807 23.5 19 23.5H15.5C14.9477 23.5 14.5 23.0523 14.5 22.5V16.5C14.5 16.2239 14.2761 16 14 16H9C8.72386 16 8.5 16.2239 8.5 16.5V22.5C8.5 23.0523 8.05228 23.5 7.5 23.5H4C2.61929 23.5 1.5 22.3807 1.5 21V10.3801Z" stroke="#F6E3FF" stroke-width="2" stroke-linecap="round" stroke-linejoin="round"/>
</svg>
